<svg width="1339" height="1658" viewBox="0 0 1339 1658" fill="none" xmlns="http://www.w3.org/2000/svg">
<g opacity="0.3" clip-path="url(#clip0_272_2828)">
<path d="M35.2854 784.223H25.246V794.268H35.2854V784.223Z" fill="#D7C9E6"/>
<path d="M45.3248 774.177H35.2854V784.223H45.3248V774.177Z" fill="#D7C9E6"/>
<path d="M35.2854 764.132H25.246V774.177H35.2854V764.132Z" fill="#D7C9E6"/>
<path d="M55.3641 784.223H45.3248V794.268H55.3641V784.223Z" fill="#D7C9E6"/>
<path d="M55.3641 764.132H45.3248V774.177H55.3641V764.132Z" fill="#D7C9E6"/>
<path d="M1318.77 371.369H1308.73V381.415H1318.77V371.369Z" fill="#D7C9E6"/>
<path d="M1328.82 361.324H1318.78V371.369H1328.82V361.324Z" fill="#D7C9E6"/>
<path d="M1318.77 351.278H1308.73V361.324H1318.77V351.278Z" fill="#D7C9E6"/>
<path d="M1338.85 371.369H1328.82V381.415H1338.85V371.369Z" fill="#D7C9E6"/>
<path d="M1338.85 351.278H1328.82V361.324H1338.85V351.278Z" fill="#D7C9E6"/>
<path d="M872.47 599.431H862.43V609.476H872.47V599.431Z" fill="#D7C9E6"/>
<path d="M882.509 589.385H872.47V599.431H882.509V589.385Z" fill="#D7C9E6"/>
<path d="M872.47 579.34H862.43V589.385H872.47V579.34Z" fill="#D7C9E6"/>
<path d="M892.553 599.431H882.514V609.476H892.553V599.431Z" fill="#D7C9E6"/>
<path d="M892.553 579.34H882.514V589.385H892.553V579.34Z" fill="#D7C9E6"/>
<path d="M269.449 114.269H259.409V124.315H269.449V114.269Z" fill="#D7C9E6"/>
<path d="M279.488 104.224H269.449V114.269H279.488V104.224Z" fill="#D7C9E6"/>
<path d="M269.449 104.224H259.409V114.269H269.449V104.224Z" fill="#D7C9E6"/>
<path d="M259.409 104.224H249.37V114.269H259.409V104.224Z" fill="#D7C9E6"/>
<path d="M269.449 94.1737H259.409V104.219H269.449V94.1737Z" fill="#D7C9E6"/>
<path d="M578.337 587.328H568.298V597.374H578.337V587.328Z" fill="#D7C9E6"/>
<path d="M588.377 577.283H578.337V587.328H588.377V577.283Z" fill="#D7C9E6"/>
<path d="M578.337 577.283H568.298V587.328H578.337V577.283Z" fill="#D7C9E6"/>
<path d="M568.293 577.283H558.254V587.328H568.293V577.283Z" fill="#D7C9E6"/>
<path d="M578.337 567.238H568.298V577.283H578.337V567.238Z" fill="#D7C9E6"/>
<path d="M783.15 311.984H773.111V322.03H783.15V311.984Z" fill="#D7C9E6"/>
<path d="M783.15 332.075H773.111V342.121H783.15V332.075Z" fill="#D7C9E6"/>
<path d="M753.032 342.121H742.993V352.166H753.032V342.121Z" fill="#D7C9E6"/>
<path d="M773.111 342.121H763.071V352.166H773.111V342.121Z" fill="#D7C9E6"/>
<path d="M783.15 342.121H773.111V352.166H783.15V342.121Z" fill="#D7C9E6"/>
<path d="M793.189 342.121H783.15V352.166H793.189V342.121Z" fill="#D7C9E6"/>
<path d="M813.268 342.121H803.229V352.166H813.268V342.121Z" fill="#D7C9E6"/>
<path d="M783.15 352.171H773.111V362.216H783.15V352.171Z" fill="#D7C9E6"/>
<path d="M783.15 372.262H773.111V382.307H783.15V372.262Z" fill="#D7C9E6"/>
<path d="M40.3027 456.638H30.2633V466.684H40.3027V456.638Z" fill="#D7C9E6"/>
<path d="M40.3027 476.729H30.2633V486.774H40.3027V476.729Z" fill="#D7C9E6"/>
<path d="M10.1845 486.774H0.145157V496.82H10.1845V486.774Z" fill="#D7C9E6"/>
<path d="M30.2633 486.774H20.2239V496.82H30.2633V486.774Z" fill="#D7C9E6"/>
<path d="M40.3027 486.774H30.2633V496.82H40.3027V486.774Z" fill="#D7C9E6"/>
<path d="M50.3468 486.774H40.3074V496.82H50.3468V486.774Z" fill="#D7C9E6"/>
<path d="M70.4256 486.774H60.3862V496.82H70.4256V486.774Z" fill="#D7C9E6"/>
<path d="M40.3027 496.82H30.2633V506.865H40.3027V496.82Z" fill="#D7C9E6"/>
<path d="M40.3027 516.91H30.2633V526.956H40.3027V516.91Z" fill="#D7C9E6"/>
<path d="M1217.27 41.26H1207.23V51.3054H1217.27V41.26Z" fill="#D7C9E6"/>
<path d="M1217.27 61.3508H1207.23V71.3962H1217.27V61.3508Z" fill="#D7C9E6"/>
<path d="M1187.15 71.3962H1177.11V81.4416H1187.15V71.3962Z" fill="#D7C9E6"/>
<path d="M1207.23 71.3962H1197.19V81.4416H1207.23V71.3962Z" fill="#D7C9E6"/>
<path d="M1217.27 71.3962H1207.23V81.4416H1217.27V71.3962Z" fill="#D7C9E6"/>
<path d="M1227.31 71.3962H1217.27V81.4416H1227.31V71.3962Z" fill="#D7C9E6"/>
<path d="M1247.39 71.3962H1237.35V81.4416H1247.39V71.3962Z" fill="#D7C9E6"/>
<path d="M1217.27 81.4417H1207.23V91.487H1217.27V81.4417Z" fill="#D7C9E6"/>
<path d="M1217.27 101.537H1207.23V111.583H1217.27V101.537Z" fill="#D7C9E6"/>
<path d="M500.116 327.198H485.054V342.269H500.116V327.198Z" fill="#D7C9E6"/>
<path d="M515.177 312.128H500.116V327.198H515.177V312.128Z" fill="#D7C9E6"/>
<path d="M485.054 312.128H469.993V327.198H485.054V312.128Z" fill="#D7C9E6"/>
<path d="M500.116 297.057H485.054V312.128H500.116V297.057Z" fill="#D7C9E6"/>
<path d="M1212.25 771.667H1197.19V786.738H1212.25V771.667Z" fill="#D7C9E6"/>
<path d="M1227.31 756.597H1212.25V771.667H1227.31V756.597Z" fill="#D7C9E6"/>
<path d="M1197.19 756.597H1182.13V771.667H1197.19V756.597Z" fill="#D7C9E6"/>
<path d="M1212.25 741.531H1197.19V756.602H1212.25V741.531Z" fill="#D7C9E6"/>
<path d="M61.0682 94.0592H46.0068V109.13H61.0682V94.0592Z" fill="#D7C9E6"/>
<path d="M76.1297 78.9935H61.0682V94.064H76.1297V78.9935Z" fill="#D7C9E6"/>
<path d="M46.0115 78.9935H30.9501V94.064H46.0115V78.9935Z" fill="#D7C9E6"/>
<path d="M61.0682 63.9231H46.0068V78.9936H61.0682V63.9231Z" fill="#D7C9E6"/>
<path d="M500.116 0H485.054V15.0705H500.116V0Z" fill="#D7C9E6"/>
<path d="M500.116 15.0704H485.054V30.1409H500.116V15.0704Z" fill="#D7C9E6"/>
<path d="M515.177 30.1362H500.116V45.2067H515.177V30.1362Z" fill="#D7C9E6"/>
<path d="M485.054 30.1362H469.993V45.2067H485.054V30.1362Z" fill="#D7C9E6"/>
<path d="M500.116 45.2067H485.054V60.2771H500.116V45.2067Z" fill="#D7C9E6"/>
<path d="M500.116 60.2771H485.054V75.3476H500.116V60.2771Z" fill="#D7C9E6"/>
<path d="M1064.55 222.483H1049.49V237.553H1064.55V222.483Z" fill="#D7C9E6"/>
<path d="M1094.67 222.483H1079.61V237.553H1094.67V222.483Z" fill="#D7C9E6"/>
<path d="M1049.49 237.553H1034.43V252.624H1049.49V237.553Z" fill="#D7C9E6"/>
<path d="M1064.55 237.553H1049.49V252.624H1064.55V237.553Z" fill="#D7C9E6"/>
<path d="M1079.61 237.553H1064.54V252.624H1079.61V237.553Z" fill="#D7C9E6"/>
<path d="M1094.67 237.553H1079.61V252.624H1094.67V237.553Z" fill="#D7C9E6"/>
<path d="M1109.73 237.553H1094.67V252.624H1109.73V237.553Z" fill="#D7C9E6"/>
<path d="M1064.55 252.624H1049.49V267.694H1064.55V252.624Z" fill="#D7C9E6"/>
<path d="M1079.61 252.624H1064.54V267.694H1079.61V252.624Z" fill="#D7C9E6"/>
<path d="M1094.67 252.624H1079.61V267.694H1094.67V252.624Z" fill="#D7C9E6"/>
<path d="M1079.61 267.689H1064.54V282.76H1079.61V267.689Z" fill="#D7C9E6"/>
<path d="M264.431 268.042H249.37V283.113H264.431V268.042Z" fill="#D7C9E6"/>
<path d="M234.313 268.042H219.252V283.113H234.313V268.042Z" fill="#D7C9E6"/>
<path d="M264.431 283.113H249.37V298.183H264.431V283.113Z" fill="#D7C9E6"/>
<path d="M249.37 283.113H234.308V298.183H249.37V283.113Z" fill="#D7C9E6"/>
<path d="M234.313 283.113H219.252V298.183H234.313V283.113Z" fill="#D7C9E6"/>
<path d="M249.37 298.179H234.308V313.249H249.37V298.179Z" fill="#D7C9E6"/>
<path d="M742.993 749.062H727.931V764.132H742.993V749.062Z" fill="#D7C9E6"/>
<path d="M712.87 749.062H697.808V764.132H712.87V749.062Z" fill="#D7C9E6"/>
<path d="M742.993 764.132H727.931V779.203H742.993V764.132Z" fill="#D7C9E6"/>
<path d="M727.931 764.132H712.87V779.203H727.931V764.132Z" fill="#D7C9E6"/>
<path d="M712.87 764.132H697.808V779.203H712.87V764.132Z" fill="#D7C9E6"/>
<path d="M727.931 779.203H712.87V794.273H727.931V779.203Z" fill="#D7C9E6"/>
<path d="M1112.31 586.875H1097.25V601.946H1112.31V586.875Z" fill="#D7C9E6"/>
<path d="M1127.36 571.805H1112.3V586.875H1127.36V571.805Z" fill="#D7C9E6"/>
<path d="M1112.31 571.805H1097.25V586.875H1112.31V571.805Z" fill="#D7C9E6"/>
<path d="M1097.25 571.805H1082.19V586.875H1097.25V571.805Z" fill="#D7C9E6"/>
<path d="M1112.31 556.734H1097.25V571.805H1112.31V556.734Z" fill="#D7C9E6"/>
<path d="M256.9 599.884H241.839V614.954H256.9V599.884Z" fill="#D7C9E6"/>
<path d="M271.962 584.818H256.901V599.889H271.962V584.818Z" fill="#D7C9E6"/>
<path d="M256.9 584.818H241.839V599.889H256.9V584.818Z" fill="#D7C9E6"/>
<path d="M241.844 584.818H226.782V599.889H241.844V584.818Z" fill="#D7C9E6"/>
<path d="M256.9 569.748H241.839V584.818H256.9V569.748Z" fill="#D7C9E6"/>
<path d="M815.782 99.0222H800.72V114.093H815.782V99.0222Z" fill="#D7C9E6"/>
<path d="M830.843 83.9565H815.782V99.027H830.843V83.9565Z" fill="#D7C9E6"/>
<path d="M815.782 83.9565H800.72V99.027H815.782V83.9565Z" fill="#D7C9E6"/>
<path d="M800.72 83.9565H785.659V99.027H800.72V83.9565Z" fill="#D7C9E6"/>
<path d="M815.782 68.8861H800.72V83.9566H815.782V68.8861Z" fill="#D7C9E6"/>
<path d="M35.2854 1647.95H25.246V1658H35.2854V1647.95Z" fill="#D7C9E6"/>
<path d="M45.3248 1637.91H35.2854V1647.95H45.3248V1637.91Z" fill="#D7C9E6"/>
<path d="M35.2854 1627.86H25.246V1637.9H35.2854V1627.86Z" fill="#D7C9E6"/>
<path d="M55.3641 1647.95H45.3248V1658H55.3641V1647.95Z" fill="#D7C9E6"/>
<path d="M55.3641 1627.86H45.3248V1637.9H55.3641V1627.86Z" fill="#D7C9E6"/>
<path d="M1318.77 1235.1H1308.73V1245.14H1318.77V1235.1Z" fill="#D7C9E6"/>
<path d="M1328.82 1225.05H1318.78V1235.1H1328.82V1225.05Z" fill="#D7C9E6"/>
<path d="M1318.77 1215.01H1308.73V1225.05H1318.77V1215.01Z" fill="#D7C9E6"/>
<path d="M1338.85 1235.1H1328.82V1245.14H1338.85V1235.1Z" fill="#D7C9E6"/>
<path d="M1338.85 1215.01H1328.82V1225.05H1338.85V1215.01Z" fill="#D7C9E6"/>
<path d="M872.47 1463.16H862.43V1473.2H872.47V1463.16Z" fill="#D7C9E6"/>
<path d="M882.509 1453.11H872.47V1463.16H882.509V1453.11Z" fill="#D7C9E6"/>
<path d="M872.47 1443.07H862.43V1453.11H872.47V1443.07Z" fill="#D7C9E6"/>
<path d="M892.553 1463.16H882.514V1473.2H892.553V1463.16Z" fill="#D7C9E6"/>
<path d="M892.553 1443.07H882.514V1453.11H892.553V1443.07Z" fill="#D7C9E6"/>
<path d="M269.449 977.996H259.409V988.042H269.449V977.996Z" fill="#D7C9E6"/>
<path d="M279.488 967.951H269.449V977.996H279.488V967.951Z" fill="#D7C9E6"/>
<path d="M269.449 967.951H259.409V977.996H269.449V967.951Z" fill="#D7C9E6"/>
<path d="M259.409 967.951H249.37V977.996H259.409V967.951Z" fill="#D7C9E6"/>
<path d="M269.449 957.906H259.409V967.951H269.449V957.906Z" fill="#D7C9E6"/>
<path d="M578.337 1451.06H568.298V1461.1H578.337V1451.06Z" fill="#D7C9E6"/>
<path d="M588.377 1441.01H578.337V1451.06H588.377V1441.01Z" fill="#D7C9E6"/>
<path d="M578.337 1441.01H568.298V1451.06H578.337V1441.01Z" fill="#D7C9E6"/>
<path d="M568.293 1441.01H558.254V1451.06H568.293V1441.01Z" fill="#D7C9E6"/>
<path d="M578.337 1430.96H568.298V1441.01H578.337V1430.96Z" fill="#D7C9E6"/>
<path d="M783.15 1175.71H773.111V1185.76H783.15V1175.71Z" fill="#D7C9E6"/>
<path d="M783.15 1195.81H773.111V1205.85H783.15V1195.81Z" fill="#D7C9E6"/>
<path d="M753.032 1205.85H742.993V1215.9H753.032V1205.85Z" fill="#D7C9E6"/>
<path d="M773.111 1205.85H763.071V1215.9H773.111V1205.85Z" fill="#D7C9E6"/>
<path d="M783.15 1205.85H773.111V1215.9H783.15V1205.85Z" fill="#D7C9E6"/>
<path d="M793.189 1205.85H783.15V1215.9H793.189V1205.85Z" fill="#D7C9E6"/>
<path d="M813.268 1205.85H803.229V1215.9H813.268V1205.85Z" fill="#D7C9E6"/>
<path d="M783.15 1215.9H773.111V1225.94H783.15V1215.9Z" fill="#D7C9E6"/>
<path d="M783.15 1235.99H773.111V1246.03H783.15V1235.99Z" fill="#D7C9E6"/>
<path d="M40.3027 1320.37H30.2633V1330.41H40.3027V1320.37Z" fill="#D7C9E6"/>
<path d="M40.3027 1340.46H30.2633V1350.5H40.3027V1340.46Z" fill="#D7C9E6"/>
<path d="M10.1845 1350.5H0.145157V1360.55H10.1845V1350.5Z" fill="#D7C9E6"/>
<path d="M30.2633 1350.5H20.2239V1360.55H30.2633V1350.5Z" fill="#D7C9E6"/>
<path d="M40.3027 1350.5H30.2633V1360.55H40.3027V1350.5Z" fill="#D7C9E6"/>
<path d="M50.3468 1350.5H40.3074V1360.55H50.3468V1350.5Z" fill="#D7C9E6"/>
<path d="M70.4256 1350.5H60.3862V1360.55H70.4256V1350.5Z" fill="#D7C9E6"/>
<path d="M40.3027 1360.55H30.2633V1370.59H40.3027V1360.55Z" fill="#D7C9E6"/>
<path d="M40.3027 1380.64H30.2633V1390.69H40.3027V1380.64Z" fill="#D7C9E6"/>
<path d="M1217.27 904.987H1207.23V915.032H1217.27V904.987Z" fill="#D7C9E6"/>
<path d="M1217.27 925.078H1207.23V935.123H1217.27V925.078Z" fill="#D7C9E6"/>
<path d="M1187.15 935.128H1177.11V945.173H1187.15V935.128Z" fill="#D7C9E6"/>
<path d="M1207.23 935.128H1197.19V945.173H1207.23V935.128Z" fill="#D7C9E6"/>
<path d="M1217.27 935.128H1207.23V945.173H1217.27V935.128Z" fill="#D7C9E6"/>
<path d="M1227.31 935.128H1217.27V945.173H1227.31V935.128Z" fill="#D7C9E6"/>
<path d="M1247.39 935.128H1237.35V945.173H1247.39V935.128Z" fill="#D7C9E6"/>
<path d="M1217.27 945.173H1207.23V955.219H1217.27V945.173Z" fill="#D7C9E6"/>
<path d="M1217.27 965.264H1207.23V975.31H1217.27V965.264Z" fill="#D7C9E6"/>
<path d="M500.116 1190.93H485.054V1206H500.116V1190.93Z" fill="#D7C9E6"/>
<path d="M515.177 1175.85H500.116V1190.93H515.177V1175.85Z" fill="#D7C9E6"/>
<path d="M485.054 1175.85H469.993V1190.93H485.054V1175.85Z" fill="#D7C9E6"/>
<path d="M500.116 1160.79H485.054V1175.86H500.116V1160.79Z" fill="#D7C9E6"/>
<path d="M1212.25 1635.39H1197.19V1650.46H1212.25V1635.39Z" fill="#D7C9E6"/>
<path d="M1227.31 1620.33H1212.25V1635.4H1227.31V1620.33Z" fill="#D7C9E6"/>
<path d="M1197.19 1620.33H1182.13V1635.4H1197.19V1620.33Z" fill="#D7C9E6"/>
<path d="M1212.25 1605.26H1197.19V1620.33H1212.25V1605.26Z" fill="#D7C9E6"/>
<path d="M61.0682 957.791H46.0068V972.862H61.0682V957.791Z" fill="#D7C9E6"/>
<path d="M76.1297 942.721H61.0682V957.791H76.1297V942.721Z" fill="#D7C9E6"/>
<path d="M46.0115 942.721H30.9501V957.791H46.0115V942.721Z" fill="#D7C9E6"/>
<path d="M61.0682 927.65H46.0068V942.721H61.0682V927.65Z" fill="#D7C9E6"/>
<path d="M500.116 863.727H485.054V878.797H500.116V863.727Z" fill="#D7C9E6"/>
<path d="M500.116 878.797H485.054V893.868H500.116V878.797Z" fill="#D7C9E6"/>
<path d="M515.177 893.868H500.116V908.938H515.177V893.868Z" fill="#D7C9E6"/>
<path d="M485.054 893.868H469.993V908.938H485.054V893.868Z" fill="#D7C9E6"/>
<path d="M500.116 908.934H485.054V924.004H500.116V908.934Z" fill="#D7C9E6"/>
<path d="M500.116 924.004H485.054V939.075H500.116V924.004Z" fill="#D7C9E6"/>
<path d="M1064.55 1086.21H1049.49V1101.28H1064.55V1086.21Z" fill="#D7C9E6"/>
<path d="M1094.67 1086.21H1079.61V1101.28H1094.67V1086.21Z" fill="#D7C9E6"/>
<path d="M1049.49 1101.28H1034.43V1116.35H1049.49V1101.28Z" fill="#D7C9E6"/>
<path d="M1064.55 1101.28H1049.49V1116.35H1064.55V1101.28Z" fill="#D7C9E6"/>
<path d="M1079.61 1101.28H1064.54V1116.35H1079.61V1101.28Z" fill="#D7C9E6"/>
<path d="M1094.67 1101.28H1079.61V1116.35H1094.67V1101.28Z" fill="#D7C9E6"/>
<path d="M1109.73 1101.28H1094.67V1116.35H1109.73V1101.28Z" fill="#D7C9E6"/>
<path d="M1064.55 1116.35H1049.49V1131.42H1064.55V1116.35Z" fill="#D7C9E6"/>
<path d="M1079.61 1116.35H1064.54V1131.42H1079.61V1116.35Z" fill="#D7C9E6"/>
<path d="M1094.67 1116.35H1079.61V1131.42H1094.67V1116.35Z" fill="#D7C9E6"/>
<path d="M1079.61 1131.42H1064.54V1146.49H1079.61V1131.42Z" fill="#D7C9E6"/>
<path d="M264.431 1131.77H249.37V1146.84H264.431V1131.77Z" fill="#D7C9E6"/>
<path d="M234.313 1131.77H219.252V1146.84H234.313V1131.77Z" fill="#D7C9E6"/>
<path d="M264.431 1146.84H249.37V1161.91H264.431V1146.84Z" fill="#D7C9E6"/>
<path d="M249.37 1146.84H234.308V1161.91H249.37V1146.84Z" fill="#D7C9E6"/>
<path d="M234.313 1146.84H219.252V1161.91H234.313V1146.84Z" fill="#D7C9E6"/>
<path d="M249.37 1161.91H234.308V1176.98H249.37V1161.91Z" fill="#D7C9E6"/>
<path d="M742.993 1612.79H727.931V1627.86H742.993V1612.79Z" fill="#D7C9E6"/>
<path d="M712.87 1612.79H697.808V1627.86H712.87V1612.79Z" fill="#D7C9E6"/>
<path d="M742.993 1627.86H727.931V1642.93H742.993V1627.86Z" fill="#D7C9E6"/>
<path d="M727.931 1627.86H712.87V1642.93H727.931V1627.86Z" fill="#D7C9E6"/>
<path d="M712.87 1627.86H697.808V1642.93H712.87V1627.86Z" fill="#D7C9E6"/>
<path d="M727.931 1642.93H712.87V1658H727.931V1642.93Z" fill="#D7C9E6"/>
<path d="M1112.31 1450.6H1097.25V1465.67H1112.31V1450.6Z" fill="#D7C9E6"/>
<path d="M1127.36 1435.53H1112.3V1450.6H1127.36V1435.53Z" fill="#D7C9E6"/>
<path d="M1112.31 1435.53H1097.25V1450.6H1112.31V1435.53Z" fill="#D7C9E6"/>
<path d="M1097.25 1435.53H1082.19V1450.6H1097.25V1435.53Z" fill="#D7C9E6"/>
<path d="M1112.31 1420.46H1097.25V1435.53H1112.31V1420.46Z" fill="#D7C9E6"/>
<path d="M256.9 1463.62H241.839V1478.69H256.9V1463.62Z" fill="#D7C9E6"/>
<path d="M271.962 1448.55H256.901V1463.62H271.962V1448.55Z" fill="#D7C9E6"/>
<path d="M256.9 1448.55H241.839V1463.62H256.9V1448.55Z" fill="#D7C9E6"/>
<path d="M241.844 1448.55H226.782V1463.62H241.844V1448.55Z" fill="#D7C9E6"/>
<path d="M256.9 1433.47H241.839V1448.55H256.9V1433.47Z" fill="#D7C9E6"/>
<path d="M815.782 962.754H800.72V977.825H815.782V962.754Z" fill="#D7C9E6"/>
<path d="M830.843 947.684H815.782V962.754H830.843V947.684Z" fill="#D7C9E6"/>
<path d="M815.782 947.684H800.72V962.754H815.782V947.684Z" fill="#D7C9E6"/>
<path d="M800.72 947.684H785.659V962.754H800.72V947.684Z" fill="#D7C9E6"/>
<path d="M815.782 932.613H800.72V947.684H815.782V932.613Z" fill="#D7C9E6"/>
</g>
<defs>
<clipPath id="clip0_272_2828">
<rect width="1339" height="1658" fill="white"/>
</clipPath>
</defs>
</svg>
