<?xml version="1.0" encoding="UTF-8"?>
<svg id="Layer_1" xmlns="http://www.w3.org/2000/svg" version="1.1" viewBox="0 0 22 22">
  <!-- Generator: Adobe Illustrator 30.1.0, SVG Export Plug-In . SVG Version: 2.1.1 Build 136)  -->
  <defs>
    <style>
      .st0 {
        fill: #fff;
      }
    </style>
  </defs>
  <circle class="st0" cx="10.79" cy="10.79" r="4.8"/>
  <rect class="st0" y="9.6" width="4.8" height="2.4" rx="1.2" ry="1.2"/>
  <rect class="st0" x="16.79" y="9.6" width="4.8" height="2.4" rx="1.2" ry="1.2"/>
  <rect class="st0" x="2.46" y="15.53" width="4.8" height="2.4" rx="1.2" ry="1.2" transform="translate(-10.41 8.34) rotate(-45)"/>
  <rect class="st0" x="14.33" y="3.66" width="4.8" height="2.4" rx="1.2" ry="1.2" transform="translate(1.47 13.25) rotate(-45)"/>
  <rect class="st0" x="3.66" y="2.46" width="2.4" height="4.8" rx="1.2" ry="1.2" transform="translate(-2.01 4.86) rotate(-45)"/>
  <rect class="st0" x="15.53" y="14.33" width="2.4" height="4.8" rx="1.2" ry="1.2" transform="translate(-6.93 16.73) rotate(-45)"/>
  <rect class="st0" x="9.6" width="2.4" height="4.8" rx="1.2" ry="1.2"/>
  <rect class="st0" x="9.6" y="16.79" width="2.4" height="4.8" rx="1.2" ry="1.2"/>
</svg>