<?xml version="1.0" encoding="UTF-8"?>
<svg id="Layer_1" xmlns="http://www.w3.org/2000/svg" version="1.1" viewBox="0 0 97 50">
  <!-- Generator: Adobe Illustrator 30.1.0, SVG Export Plug-In . SVG Version: 2.1.1 Build 136)  -->
  <defs>
    <style>
      .st0 {
        fill: #ff492c;
      }
    </style>
  </defs>
  <path class="st0" d="M89.48,0c-.21,3.99-3.4,7.18-7.39,7.39,3.99.21,7.18,3.4,7.39,7.39.21-3.99,3.4-7.18,7.39-7.39-3.99-.21-7.18-3.4-7.39-7.39Z"/>
  <path class="st0" d="M92.95,15.86h-6.74v21.78h6.74V15.86Z"/>
  <path class="st0" d="M67.21,39.33c1.32,0,2.6-.2,3.8-.58v-7.52c-1.03.85-2.36,1.37-3.8,1.37-3.3,0-5.98-2.68-5.98-5.98s2.68-5.98,5.98-5.98,5.97,2.68,5.97,5.98v11.28l6.31,3.63,6.74-3.89-6.3-3.64v-7.39c0-7.02-5.69-12.71-12.71-12.71s-12.71,5.69-12.71,12.71,5.69,12.71,12.71,12.71Z"/>
  <path class="st0" d="M25,0C11.19,0,0,11.19,0,25s11.19,25,25,25,25-11.19,25-25S38.81,0,25,0ZM29.36,20.62c0-1.1.22-2.01.66-2.72.44-.72,1.2-1.35,2.3-1.91l.5-.24c.89-.45,1.12-.84,1.12-1.3,0-.55-.48-.95-1.25-.95-.92,0-1.61.48-2.09,1.44l-1.24-1.24c.27-.58.71-1.04,1.29-1.41.59-.37,1.24-.55,1.95-.55.89,0,1.66.23,2.3.71.65.48.97,1.14.97,1.97,0,1.33-.75,2.14-2.15,2.86l-.79.4c-.84.43-1.25.8-1.37,1.47h4.27v1.77h-6.46v-.3ZM25.25,39.29c-7.89,0-14.29-6.4-14.29-14.29s6.4-14.29,14.29-14.29c.96,0,1.89.09,2.79.27l-2.79,5.85c-4.5,0-8.16,3.66-8.16,8.16s3.66,8.16,8.16,8.16c2.03,0,3.89-.75,5.32-1.98l3.09,5.36c-2.36,1.72-5.27,2.74-8.41,2.74ZM35.25,35.2l-3.53-6.12h-7.07l3.53-6.12h7.07l3.53,6.12-3.53,6.12Z"/>
</svg>